<?xml version="1.0" encoding="utf-8"?>
<!-- Generator: Adobe Illustrator 25.3.1, SVG Export Plug-In . SVG Version: 6.00 Build 0)  -->
<svg version="1.1" id="Layer_1" xmlns="http://www.w3.org/2000/svg" xmlns:xlink="http://www.w3.org/1999/xlink" x="0px" y="0px"
	 viewBox="0 0 800 800" style="enable-background:new 0 0 800 800;" xml:space="preserve">
<style type="text/css">
	.st0{fill:#FFFFFF;}
</style>
<g>
	<path class="st0" d="M624.91,490.14c-0.41,0.08-1.51,0.27-3.05-1.03c-1.7-1.43-3.94-2.1-6.13-1.82c-2.17,0.27-4.15,1.44-5.44,3.22
		c-18.11,25.09-42.13,49.84-55.07,48.75c-3.83-0.34-6.31-1.3-7.36-2.86c-1.99-2.93-0.9-9.64,1.23-17.76
		c15.57,5.31,21.81-0.43,24.11-4.48c4.33-7.64,5.34-26.53,3-56.15c-0.25-3.1,1.68-5.96,4.8-7.12c4.83-1.8,12.65-7.06,10.75-22.09
		c-1.67-13.25-11.7-31.51-19.83-44.5c-1.72-2.75-1.15-6.41,1.38-8.91c0.26-0.26,0.5-0.52,0.71-0.78c6.3-7.67,7.65-22.15-21.73-47.57
		c-2.75-2.38-3.25-6.52-1.12-9.23c3.32-4.22,4.12-9.23,2.29-14.48c-2.64-7.61-13.46-18.12-32.14-31.24
		c-2.19-1.54-3.16-4.35-2.55-7.35c0.52-2.53,0.3-6.02-2.73-9.63c19.26,2.6,33.94,6.2,41,10.26c4.79,2.75,10.09,7.01,8.14,11.68
		c-0.93,2.23-0.87,4.69,0.17,6.76c1.03,2.04,2.93,3.54,5.22,4.11c10.48,2.59,45.57,12.53,56.96,31.73c1.15,1.94,1.36,3.21,1.16,3.75
		c-0.19,0.52-1.12,1.38-3.15,2.11c-2.48,0.89-4.35,2.94-5,5.49c-0.66,2.57,0,5.28,1.76,7.26c6.12,6.89,26.41,30.91,30.76,50.78
		c3.18,14.51,0.73,18.99-0.47,20.24c-1.06,1.1-2.88,1.44-5.41,1c-2.67-0.47-5.37,0.43-7.22,2.39c-1.83,1.94-2.56,4.66-1.94,7.26
		c2.14,9.08,8.26,40.21-3.1,59.77C629.84,488.43,626.23,489.91,624.91,490.14z"/>
	<path class="st0" d="M387.34,445.66c3.69-4.24,35.51-4.27,39.2-0.04c0.23,0.26,0.39,0.53,0.39,0.82c0,4.09-11.74,7.25-17.22,8.5
		c-0.74,0.17-1.56,0.23-2.37,0.25c-0.16,0-0.31,0.03-0.48,0.03c-0.92,0-1.84-0.09-2.68-0.28c-5.49-1.24-17.24-4.37-17.24-8.47
		C386.95,446.19,387.11,445.92,387.34,445.66z"/>
	<path class="st0" d="M404.96,555.3c0.06,1.05,0.9,1.9,1.97,1.97c1.16,0.07,2.16-0.81,2.23-1.97l2.21-36.71
		c1.76,1.82,3.61,3.51,5.53,5.02c6.19,4.81,12.87,8.44,19.69,11.57c-4.91,23.88-14.03,48.85-29.48,48.86
		c-15.42,0.02-24.6-24.86-29.57-48.7c6.9-3.17,13.65-6.84,19.9-11.72c1.82-1.44,3.58-3.02,5.25-4.72L404.96,555.3z"/>
	<path class="st0" d="M444.79,576.53c-0.84-1.67-2.45-2.86-4.29-3.18c-1.84-0.32-3.76,0.25-5.12,1.54
		c-0.54,0.51-1.27,1.14-2.09,1.82c6.38-10.57,10.6-24.4,13.36-37.46c5.14,1.92,10.33,3.68,15.61,5.12
		c5.09,1.39,10.26,2.49,15.47,3.43l-0.26,0.65c-3.05,7.6-13.81,27.96-21.13,30.9C450.68,581.63,446.9,580.71,444.79,576.53z"/>
	<path class="st0" d="M380.92,576.79c-0.83-0.68-1.57-1.32-2.12-1.84c-1.37-1.29-3.28-1.86-5.13-1.53
		c-1.84,0.33-3.44,1.52-4.28,3.19c-2.1,4.18-5.87,5.11-11.54,2.85c-7.33-2.93-18.13-23.26-21.2-30.86
		c-0.09-0.22-0.24-0.39-0.35-0.58c5.33-0.96,10.62-2.09,15.82-3.53c5.19-1.43,10.3-3.17,15.37-5.06
		C370.28,552.46,374.52,566.25,380.92,576.79z"/>
	<path class="st0" d="M317.36,550.07c1.39-0.01,2.78,0.01,4.15-0.07c2.06-0.13,4.1-0.32,6.12-0.57c-0.85,3.5-2.59,6.82-3.93,7.41
		c-0.12,0.05-0.5,0.22-1.57-0.36C320.13,555.39,318.59,553.02,317.36,550.07z"/>
	<path class="st0" d="M486.49,549.23c0.03,0,0.06,0.01,0.09,0.02c2.08,0.25,4.17,0.44,6.3,0.57c1.29,0.08,2.59,0.05,3.89,0.06
		c-1.22,2.96-2.76,5.33-4.75,6.43c-1.07,0.59-1.45,0.42-1.58,0.36C489.1,556.07,487.34,552.75,486.49,549.23z"/>
	<path class="st0" d="M199.78,487.73c-0.32-0.04-0.64-0.06-0.96-0.06c-1.87,0-3.71,0.67-5.16,1.89c-1.54,1.3-2.63,1.11-3.05,1.04
		c-1.32-0.23-4.93-1.7-10.03-10.42c-11.4-19.54-5.36-50.68-3.23-59.76c0.61-2.61-0.12-5.32-1.96-7.26
		c-1.85-1.96-4.55-2.84-7.23-2.37c-2.53,0.45-4.35,0.12-5.41-0.98c-1.2-1.25-3.67-5.73-0.52-20.24
		c4.31-19.88,24.56-43.95,30.66-50.85c1.75-1.99,2.41-4.7,1.74-7.27c-0.66-2.55-2.53-4.6-5.01-5.47c-2.03-0.72-2.97-1.58-3.16-2.1
		c-0.2-0.54,0.01-1.81,1.15-3.76c11.36-19.23,46.42-29.24,56.9-31.85c2.29-0.57,4.19-2.07,5.21-4.12c1.04-2.07,1.09-4.54,0.16-6.76
		c-1.96-4.66,3.33-8.93,8.11-11.69c8.42-4.87,24.71-8.09,39.79-10.18c-2.89,3.56-3.07,6.97-2.55,9.47c0.63,2.99-0.34,5.81-2.53,7.35
		c-18.66,13.16-29.45,23.7-32.08,31.31c-1.81,5.26-1.01,10.26,2.33,14.47c2.14,2.7,1.65,6.85-1.1,9.23
		c-29.33,25.48-27.95,39.96-21.62,47.62c0.21,0.26,0.45,0.51,0.71,0.77c2.53,2.5,3.11,6.16,1.4,8.91
		c-8.09,13-18.09,31.29-19.73,44.54c-1.86,15.03,5.97,20.28,10.8,22.07c3.12,1.16,5.06,4.02,4.82,7.11
		c-2.28,29.62-1.23,48.51,3.12,56.14c2.36,4.13,8.76,10.08,25.07,4.14c2.19,8.25,3.34,15.08,1.34,18.05
		c-1.05,1.56-3.52,2.52-7.35,2.87c-12.9,1.17-37.02-23.58-55.18-48.64C203.94,489.16,201.96,487.99,199.78,487.73z"/>
	<g>
		<path class="st0" d="M581.35,430.11c-1.12-8.86-7.62-23.16-18.31-40.25c-4.33-6.93-3.14-15.94,2.89-21.91
			c4.27-5.19-2.63-16.8-17.88-30.59c-0.88-0.8-1.68-1.57-2.62-2.39c-5.21-4.51-7.14-11.36-5.52-17.52c0.57-2.17,1.56-4.25,3.03-6.12
			c1.09-1.39,1.27-2.71,0.63-4.56c-1.49-4.29-9.05-11.73-20.6-20.49c-2.41-1.83-4.93-3.69-7.67-5.62
			c-4.78-3.36-7.24-9.05-6.98-15.04c0.04-1-0.01-1.99,0.19-3c0,0-0.21-0.88-2.28-2.38c-1.58-1.14-3.29-2.18-5.06-3.16
			c-3.67-2.04-7.67-3.71-11.8-5.06c-1.98-0.65-3.97-1.21-5.98-1.7c-9.66-2.38-19.45-3.08-26.8-2.17c-5.6,0.7-11.19-1.38-14.95-5.55
			c-6.61-7.35-15.36-7.58-26.02-0.69l0,0c-5.29,3.42-12,3.72-17.52,0.76c-7.81-4.18-21.63-10.06-26.5-2.49
			c-3.47,5.39-9.62,8.4-16.08,7.89c-5.58-0.45-12.47-0.06-19.59,1.24c-3.23,0.59-6.48,1.34-9.71,2.33c-3.92,1.2-7.74,2.75-11.35,4.6
			c-2.48,1.27-4.88,2.64-7.08,4.23c-2.07,1.5-2.27,2.39-2.27,2.4c0.31,1.48,0.34,2.95,0.29,4.4c-0.16,5.46-2.64,10.55-7.04,13.65
			c-1.84,1.3-3.58,2.57-5.27,3.82c-12.91,9.58-21.36,17.76-22.94,22.35c-0.64,1.86-0.45,3.18,0.64,4.56
			c1.9,2.41,2.98,5.18,3.39,8.04c0.81,5.62-1.17,11.55-5.83,15.6c-0.29,0.25-0.53,0.49-0.81,0.74
			c-16.53,14.55-24.07,26.89-19.61,32.3c6.04,5.95,7.25,14.96,2.93,21.89c-10.65,17.12-17.13,31.43-18.23,40.29
			c-1.12,9.05,2.63,10.44,4.04,10.96c7.56,2.8,12.23,9.93,11.63,17.74c-2.35,30.55-0.63,45.94,1.77,50.15
			c1.17,2.04,6.28,1.79,12.74-0.63c0.11-0.04,0.23-0.06,0.35-0.1c1.67-0.59,3.42-0.9,5.18-0.95c0.16,0,0.32-0.04,0.48-0.04
			c0.22,0,0.44,0.07,0.66,0.08c0.62-2.38,1.36-4.7,2.27-6.92c0.19-0.47,0.33-0.97,0.53-1.44c0.77-1.78,1.63-3.5,2.54-5.2
			c-1.15-0.51-2.3-1.1-3.44-1.94c-1.11-0.81-2.14-1.96-3.07-3.26c-0.56-0.79-1.14-1.59-1.51-2.55c-0.55-1.25-0.73-2.56-0.89-3.87
			c0-0.83,0.04-1.73,0.11-2.5c0.03-0.31,0.05-0.67,0.1-0.88c1-7.19,4.72-13.61,9.24-18.48c4.59-4.89,9.9-8.66,15.57-11.41
			c2.84-1.37,5.75-2.51,8.74-3.38c2.99-0.89,6-1.54,9.2-1.8c0.99-0.08,1.85,0.66,1.93,1.64c0,0.01,0,0.01,0,0.02
			c0.05,0.66-0.27,1.27-0.79,1.61l-0.08,0.05c-4.89,3.26-9.76,6.44-14.25,9.78c-4.48,3.35-8.75,6.8-12.04,10.79
			c-3.34,3.94-5.63,8.31-6.42,12.9c-0.17,0.73-0.04,0.73-0.14,1.04c0.07,0.16,0,0.34,0.08,0.45c0.07,0.25,0.25,0.61,0.82,1.09
			c0.58,0.47,1.46,0.94,2.46,1.33c0.5,0.2,1.04,0.37,1.58,0.52c0.27,0.08,0.55,0.13,0.82,0.2l0.68,0.13l8.7,1.68l-5,6.77
			c-0.42,0.56-0.98,1.4-1.46,2.15c-0.49,0.77-0.97,1.56-1.41,2.37c-0.9,1.61-1.73,3.26-2.47,4.93c-1.04,2.4-1.81,4.85-2.41,7.29
			c-0.23,0.96-0.53,1.93-0.67,2.89c-0.14,0.87-0.1,1.7-0.15,2.55c-0.12,2.09,0,4.1,0.45,5.99c0.08,0.34,0.07,0.72,0.17,1.05
			c0.89,2.9,2.6,5.45,4.95,7.56c1.05,0.95,2.48,1.82,3.95,2.64c1.55,0.77,3.15,1.52,4.87,2.12c3.41,1.25,7.04,2.19,10.72,2.86
			c0.27,0.05,0.54,0.07,0.81,0.12c1.33,0.23,2.66,0.42,4,0.57c0.27,0.03,0.54,0.08,0.81,0.11c0.27,0.03,0.54,0.03,0.81,0.05
			c1.33,0.13,2.67,0.22,4,0.27c0.25,0.01,0.49,0.04,0.74,0.05c1.87,0.03,3.69,0.02,5.55-0.09c1.88-0.12,3.77-0.29,5.68-0.53
			c7.62-0.93,15.28-2.55,22.79-4.62c5.5-1.51,10.88-3.38,16.17-5.43c1.71-0.66,3.43-1.28,5.11-1.99c0.23-0.1,0.47-0.17,0.7-0.27
			c1.46-0.64,2.83-1.42,4.26-2.11c5.48-2.66,10.79-5.58,15.38-9.18c2.86-2.22,5.43-4.75,7.37-7.44c1.81-2.51,2.99-5.16,3.44-7.84
			c0.04-0.22,0.15-0.44,0.18-0.66c0-0.01,0.01-0.02,0.01-0.04l0.22-1.98c-0.2-0.1-0.42-0.14-0.62-0.24
			c-0.98-0.53-2.08-1.16-3.23-1.84c-4.66-2.72-10.48-6.53-15.93-11.26c-0.21-0.18-0.4-0.37-0.61-0.55c-0.2-0.18-0.4-0.37-0.6-0.55
			c-8.29-7.5-15.36-17.09-15.37-28.08c0-3.56,1.51-6.64,4.08-9.25c14.05-14.31,60.6-14.36,74.68-0.08c2.57,2.61,4.09,5.68,4.1,9.24
			c0.01,11.07-7.15,20.75-15.5,28.29c-0.2,0.18-0.4,0.37-0.6,0.55c-0.21,0.18-0.41,0.36-0.62,0.54c-5.38,4.67-11.11,8.43-15.7,11.13
			c-1.15,0.67-2.25,1.31-3.23,1.84c-0.27,0.15-0.56,0.21-0.84,0.33l0.2,1.8l0.01,0.09c0.03,0.23,0.15,0.46,0.19,0.69
			c0.43,2.58,1.56,5.13,3.27,7.56c1.97,2.79,4.6,5.41,7.56,7.71c4.53,3.53,9.76,6.41,15.17,9.03c1.51,0.73,2.96,1.55,4.49,2.22
			c0.15,0.06,0.31,0.11,0.46,0.18c1.68,0.72,3.41,1.33,5.11,1.98c5.37,2.08,10.83,3.97,16.41,5.49c7.51,2.05,15.17,3.66,22.79,4.57
			c1.9,0.23,3.8,0.4,5.68,0.51c1.86,0.11,3.69,0.12,5.55,0.08c0.16,0,0.32-0.03,0.47-0.03c1.33-0.05,2.67-0.15,4-0.28
			c0.27-0.02,0.54-0.03,0.81-0.06c0.27-0.03,0.54-0.06,0.81-0.09c1.34-0.15,2.67-0.36,3.99-0.58c0.36-0.06,0.72-0.09,1.07-0.16
			c3.68-0.68,7.31-1.62,10.72-2.88c1.72-0.61,3.32-1.36,4.86-2.13c1.46-0.83,2.9-1.7,3.94-2.65c2.35-2.11,4.05-4.67,4.93-7.57
			c0.09-0.29,0.08-0.63,0.15-0.92c0.46-1.89,0.58-3.91,0.46-6c-0.05-0.89-0.02-1.75-0.16-2.66c-0.14-0.92-0.42-1.85-0.65-2.78
			c-0.6-2.48-1.38-4.96-2.44-7.39c-0.73-1.67-1.56-3.32-2.45-4.94c-0.44-0.81-0.92-1.6-1.4-2.38c-0.46-0.75-1.02-1.6-1.43-2.17
			l-4.87-6.83l8.49-1.47l0.69-0.12c0.27-0.06,0.56-0.11,0.83-0.19c0.55-0.14,1.1-0.3,1.61-0.49c1.02-0.37,1.93-0.83,2.55-1.3
			c0.61-0.48,0.85-0.87,0.97-1.17c0.11-0.13,0.05-0.35,0.14-0.54c-0.09-0.33,0.04-0.39-0.12-1.12c-0.7-4.71-3.26-9.1-6.83-12.82
			c-3.57-3.72-7.84-7.06-12.35-10.28c-4.52-3.23-9.29-6.41-13.98-10.24l-0.1-0.08c-0.49-0.4-0.62-0.99-0.56-1.58
			c0.03-0.35,0.06-0.7,0.3-0.99c0.36-0.44,0.89-0.67,1.41-0.67c6.54-0.03,12.56,1.86,18.25,4.65c5.64,2.86,10.98,6.72,15.31,11.86
			c4.31,5.08,7.78,11.46,8.91,18.52c0.18,0.72,0.23,2.16,0.24,3.3c-0.14,1.27-0.3,2.55-0.83,3.77c-0.94,2.47-2.68,4.43-4.42,5.75
			c-1.13,0.84-2.27,1.45-3.41,1.98c0.95,1.75,1.86,3.52,2.66,5.36c0.47,1.08,0.83,2.21,1.24,3.33c0.6,1.62,1.12,3.27,1.56,4.97
			c0.8-0.04,1.59,0.05,2.39,0.11c1.54,0.13,3.07,0.39,4.54,0.94c0.21,0.08,0.39,0.11,0.6,0.18c6.16,2.19,11.02,2.4,12.14,0.41
			c2.39-4.22,4.08-19.61,1.67-50.15c-0.62-7.81,4.04-14.95,11.59-17.77C578.75,440.55,582.49,439.15,581.35,430.11z M367.31,419.7
			c-0.23,1.13-1.34,1.86-2.47,1.62c-0.86-0.18-1.48-0.85-1.63-1.66l-0.02-0.14c-1.43-7.69-4.75-15.09-9.35-20.38
			c-2.32-2.63-4.97-4.65-7.84-5.86c-2.87-1.2-5.96-1.75-9.29-1.53c-3.5,0.13-6.87,0.93-9.86,2.12c-1.47,0.65-2.89,1.39-4.21,2.3
			c-1.29,0.94-2.54,1.99-3.67,3.23c-4.59,4.87-7.59,12.34-9.51,20.04l-0.05,0.2c-0.28,1.12-1.42,1.81-2.54,1.53
			c-0.79-0.2-1.37-0.82-1.54-1.57c-1.04-4.54-1.05-9.01-0.32-13.62c0.77-4.56,2.38-9.21,5.24-13.35c1.43-2.05,3.12-4,5.08-5.67
			c1.96-1.68,4.15-3.07,6.45-4.19c4.65-2.18,9.58-3.22,14.41-3.33c5.01-0.22,10.35,0.91,14.96,3.36c4.63,2.46,8.34,6.18,10.93,10.28
			c2.62,4.1,4.25,8.55,5.11,13.05C368.04,410.63,368.24,415.21,367.31,419.7z M511.32,419.39c-0.26,1.13-1.38,1.84-2.51,1.58
			c-0.8-0.18-1.38-0.79-1.57-1.53l-0.05-0.21c-1.93-7.7-4.95-15.16-9.55-20.02c-1.14-1.23-2.39-2.28-3.68-3.22
			c-1.32-0.91-2.74-1.64-4.21-2.29c-2.98-1.18-6.36-1.97-9.86-2.1c-3.33-0.21-6.42,0.34-9.29,1.55c-2.87,1.21-5.51,3.24-7.82,5.87
			c-4.59,5.31-7.9,12.72-9.31,20.41l-0.02,0.14c-0.21,1.14-1.3,1.89-2.43,1.68c-0.86-0.16-1.5-0.82-1.67-1.63
			c-0.94-4.49-0.75-9.07,0.08-13.57c0.85-4.49,2.47-8.96,5.08-13.06c2.58-4.1,6.29-7.83,10.91-10.3c4.6-2.46,9.94-3.6,14.95-3.39
			c4.83,0.1,9.76,1.12,14.41,3.3c2.3,1.12,4.5,2.5,6.46,4.18c1.96,1.67,3.65,3.61,5.09,5.66c2.87,4.14,4.49,8.78,5.27,13.34
			C512.35,410.38,512.35,414.85,511.32,419.39z"/>
	</g>
</g>
<g>
	<g>
		<path class="st0" d="M85.87,149.36c3.4,1.57,5.64,5.26,8.1,10.07c2.91,5.66,5.81,11.32,8.72,16.98
			c6.44,12.59,7.29,17.13-5.2,23.86c-4.5,2.45-8.99,4.96-13.44,7.52c7.57,13.17,15.15,26.34,22.72,39.52
			c-3.25,1.87-6.5,3.78-9.72,5.72c0.44,0.73,0.88,1.46,1.32,2.2c4.01-2.4,8.03-4.76,12.08-7.06c-7.51-13.21-15.03-26.41-22.54-39.62
			c4.45-2.53,8.92-5.01,13.42-7.43c12.47-6.65,11.63-11.19,5.25-23.8c-2.88-5.67-5.76-11.35-8.64-17.02
			C94.64,153.81,91.75,149.35,85.87,149.36z"/>
		<path class="st0" d="M66.93,171.31c2.91-1.65,5.82-3.28,8.75-4.89c0.99-0.55,1.81-0.9,2.55-1.14c-1.32-1.46-2.99-1.55-6.56,0.43
			c-2.93,1.63-5.85,3.28-8.77,4.95c5.11,8.89,10.22,17.78,15.33,26.68c0.88-0.51,1.76-1.01,2.64-1.51
			C76.22,187.66,71.57,179.48,66.93,171.31z"/>
		<path class="st0" d="M130.93,154.3c-2.57-5.72-3.45-7.67-3.47-9.84c-0.08-5.28,5.2-7.59,6.32-8.07c1.68-0.73,3.14-1.06,4.41-1.09
			c-2.02-1.39-4.62-1.62-8.31-0.01c-1.12,0.48-6.42,2.83-6.31,8.11c0.03,2.17,0.92,4.12,3.51,9.83
			c7.45,16.38,14.89,32.77,22.34,49.15c1.59,3.49,3.58,7.15,7.69,7.19c-1.84-1.39-3.03-3.74-4.06-6.03
			C145.67,187.13,138.3,170.72,130.93,154.3z"/>
		<path class="st0" d="M146.04,123.1c7.59,3.06,10.14,9.47,14.47,20.43c5.83,14.8,11.67,29.6,17.5,44.4
			c2.75,6.99,8.21,21.9-12.89,30.99c-1.97,0.86-7.96,3.52-14.56,2.18c7.9,3.56,15.76,0.07,18.08-0.93
			c21.04-8.95,15.65-23.89,12.93-30.89c-5.77-14.82-11.53-29.65-17.3-44.47c-4.5-11.54-6.98-18.09-15.49-20.99
			C147.87,123.5,146.96,123.28,146.04,123.1z"/>
		<path class="st0" d="M219.58,94.62c-1.35,0.37-2.69,0.75-4.03,1.14c-1.86,16.92-3.28,33.81-4.26,50.65
			c12.25,13.87,23.97,28.04,35.15,42.48c-4.05,1.12-8.09,2.29-12.12,3.5c0.57,0.72,1.14,1.44,1.71,2.16
			c4.55-1.36,9.12-2.66,13.69-3.9c-11.09-14.5-22.72-28.73-34.87-42.66C215.94,130.24,217.52,112.45,219.58,94.62z"/>
		<path class="st0" d="M198.22,148.1c-0.29-3.96-0.25-8.03-0.18-9.4c0.01-0.32,0.02-0.65,0.03-0.97c-3.67-11.07-7.33-22.14-11-33.21
			c-1,0.33-2,0.66-3,1c3.96,11.79,7.93,23.59,11.89,35.38C197.02,144,197.4,145.68,198.22,148.1z"/>
		<path class="st0" d="M215.17,198.47c-3.58,1.2-7.15,2.44-10.71,3.72c0.29,0.8,0.58,1.61,0.86,2.41c4.4-1.57,8.81-3.09,13.23-4.56
			c-4.39-13.25-8.79-26.5-13.18-39.75c-0.82-0.94-4.32-5.31-5.2-6.37C205.17,168.76,210.17,183.61,215.17,198.47z"/>
		<path class="st0" d="M250.14,97.24c2.23,9.52,4.46,19.05,6.68,28.57c0.96-0.22,1.92-0.45,2.89-0.67c-1.99-8.7-3.99-17.4-5.98-26.1
			c7.68-1.76,15.38-3.39,23.1-4.88c-0.8-4.15-1.61-8.3-2.41-12.45c-1.03,0.2-2.05,0.4-3.07,0.6c0.65,3.31,1.31,6.62,1.97,9.92
			C265.57,93.77,257.84,95.44,250.14,97.24z"/>
		<path class="st0" d="M259.65,137.88c2.54,10.87,5.08,21.73,7.63,32.6c0.89-0.21,1.79-0.42,2.69-0.62
			c-2.3-10.04-4.6-20.09-6.91-30.13c6.48-1.48,12.98-2.87,19.5-4.15c-0.8-4.05-1.6-8.11-2.4-12.16c-0.96,0.19-1.93,0.38-2.89,0.58
			c0.65,3.21,1.3,6.42,1.94,9.64C272.67,134.94,266.15,136.36,259.65,137.88z"/>
		<path class="st0" d="M290.54,178.43c-10.58,2.09-21.13,4.47-31.61,7.14c0.21,0.83,0.42,1.66,0.63,2.48
			c11.31-2.87,22.69-5.41,34.11-7.62c-0.8-4.15-1.6-8.3-2.4-12.45c-0.9,0.17-1.79,0.35-2.69,0.53
			C289.23,171.81,289.88,175.12,290.54,178.43z"/>
		<path class="st0" d="M285.62,95.71c0.15,0.84,0.3,1.68,0.46,2.52c1.21-0.22,2.42-0.43,3.64-0.65c-0.12-0.8-0.25-1.63-0.41-2.53
			C288.07,95.27,286.85,95.49,285.62,95.71z"/>
		<path class="st0" d="M295.5,90.82c1.53,9.29,1.04,14.11-2.52,18.52c-0.63,1.74-1.73,3.11-3.39,4.61c0.18,1.03,0.37,2.06,0.55,3.08
			c9-6.8,10.92-10.94,8.79-24.18c-0.8-5.02-1.61-10.03-2.41-15.05c-1.03,0.16-2.06,0.33-3.09,0.5
			C294.12,82.48,294.81,86.65,295.5,90.82z"/>
		<path class="st0" d="M353.48,101.78c-3.7,0.3-7.39,0.63-11.08,0.99c0.08,0.85,0.17,1.7,0.25,2.55c4.66-0.46,9.33-0.86,14-1.22
			c-0.46-5.97-0.91-11.93-1.37-17.9c-0.48-6.25-2.79-11.06-7.92-13.59c2.87,2.71,4.29,6.58,4.67,11.28
			C352.52,89.85,353,95.81,353.48,101.78z"/>
		<path class="st0" d="M327.12,92.38c-0.59-4.94-0.53-10.15,6.82-10.95c1.04-0.11,1.88-0.04,2.64,0.09c-0.9-1.58-2.6-2.68-5.99-2.31
			c-7.37,0.84-7.41,6.04-6.8,10.98c1.22,10.2,5.63,14.32,18.26,27.34c8.24,8.76,15.01,16.39,16.01,29.31
			c0.53,6.68-0.8,13.21-3.58,17.6c-4.4,6.67-11.26,7.8-15.12,8.25c-5.92,0.68-10.24-0.25-13.48-2.02c3.37,3.13,8.45,5.16,16.42,4.27
			c3.84-0.43,10.68-1.53,15.09-8.18c2.79-4.38,4.14-10.9,3.64-17.58c-0.95-12.92-7.66-20.58-15.83-29.38
			C332.67,106.73,328.3,102.59,327.12,92.38z"/>
		<path class="st0" d="M334.52,162.01c-1.33-1.91-1.66-4.5-1.88-6.3c-0.74-6.08-1.48-12.16-2.23-18.24
			c-0.94,0.11-1.88,0.23-2.82,0.35c0.66,5.23,1.32,10.46,1.99,15.69C329.92,156.25,330.52,160.81,334.52,162.01z"/>
		<path class="st0" d="M444.93,72.52c2.3,3.17,2.41,7.22,2.18,11.25c-1.28,22.28-2.56,44.56-3.84,66.84
			c-0.78,13.24-4.59,17.08-15.9,16.68c-8-0.26-16.01-0.36-24.02-0.31c0.01,0.85,0.01,1.71,0.02,2.56c8.86-0.06,17.73,0.07,26.59,0.4
			c11.26,0.45,15.07-3.37,15.92-16.61c1.38-22.27,2.76-44.55,4.14-66.82C450.32,81.19,450.06,75.84,444.93,72.52z"/>
		<path class="st0" d="M427.77,81.51c1.22,0.04,2.14,0.21,2.94,0.46c-0.58-1.78-2.1-3-5.94-3.1c-3.08-0.08-6.16-0.13-9.23-0.17
			c-0.29,25.31-0.58,50.61-0.86,75.92c0.91,0.01,1.83,0.02,2.74,0.04c0.39-24.45,0.77-48.9,1.16-73.35
			C421.64,81.35,424.71,81.42,427.77,81.51z"/>
		<path class="st0" d="M506.38,146.37c1.55-9.79,1.64-15.39-2.7-18.75c1.76,3.45,1.44,8.43,0.31,15.78
			c-0.56,3.61-1.11,7.23-1.67,10.84c-1.84,11.97-1.8,13.84-0.37,20.13c-4.06-0.64-8.13-1.24-12.2-1.8c0.05,0.86,0.11,1.73,0.16,2.61
			c4.77,0.66,9.53,1.37,14.29,2.15c-1.4-6.29-1.43-8.16,0.47-20.12C505.24,153.59,505.81,149.98,506.38,146.37z"/>
		<path class="st0" d="M492.71,86.33c1.61,0.2,2.88,0.38,3.87,0.69c-0.53-2.73-2.44-3.1-6.61-3.61c-2.72-0.33-5.45-0.63-8.17-0.93
			c-1.11,10.29-2.22,20.58-3.33,30.88c0.98,0.1,1.95,0.21,2.93,0.32c1.06-9.44,2.12-18.88,3.18-28.31
			C487.29,85.67,490,85.99,492.71,86.33z"/>
		<path class="st0" d="M494.89,121.37c-0.03,0.19-0.05,0.38-0.08,0.57c2.68,0.65,4.73,1.51,6.25,2.64
			c8.82-0.08,10.42-7.34,12.89-22.87c1.98-12.44,2.11-18.91-3.03-22.72c2.32,4.01,1.93,10.06,0.44,19.72
			C508.66,116.18,507.06,123.19,494.89,121.37z"/>
		<path class="st0" d="M477.12,124.39c-1.65,15.34-3.3,30.69-4.95,46.03c-3.71-0.4-7.43-0.76-11.15-1.09
			c-0.08,0.85-0.15,1.7-0.23,2.55c4.59,0.41,9.18,0.87,13.76,1.38c1.72-15.34,3.43-30.67,5.15-46.01c5,0.56,7.71,0.91,9.37,1.68
			c-0.02-0.04-0.02-0.1-0.04-0.14C487.67,125.62,485.91,125.35,477.12,124.39z"/>
		<path class="st0" d="M549.85,183.93c-10.51-2.55-21.07-4.8-31.67-6.78c-0.16,0.84-0.31,1.68-0.47,2.52
			c11.44,2.13,22.82,4.59,34.15,7.39c1.01-4.1,2.03-8.21,3.04-12.31c-0.89-0.22-1.78-0.44-2.67-0.65
			C551.44,177.38,550.64,180.66,549.85,183.93z"/>
		<path class="st0" d="M547.24,93.29c-1.97,9.58-3.95,19.16-5.92,28.74c0.97,0.2,1.93,0.4,2.9,0.6c1.84-8.74,3.68-17.47,5.52-26.21
			c7.7,1.62,15.38,3.38,23.04,5.27c1.01-4.1,2.03-8.21,3.04-12.31c-1.02-0.25-2.03-0.5-3.05-0.75c-0.79,3.28-1.59,6.55-2.38,9.83
			C562.69,96.61,554.98,94.89,547.24,93.29z"/>
		<path class="st0" d="M538.82,134.17c-2.25,10.93-4.5,21.86-6.76,32.79c0.9,0.18,1.8,0.37,2.7,0.56
			c2.12-10.08,4.25-20.17,6.37-30.25c6.5,1.37,12.99,2.84,19.46,4.41c0.98-4.01,1.95-8.03,2.93-12.04
			c-0.96-0.23-1.91-0.46-2.87-0.69c-0.76,3.19-1.52,6.37-2.28,9.56C551.86,136.96,545.35,135.52,538.82,134.17z"/>
		<path class="st0" d="M616.54,100.75c-3.8,33.04-8.45,65.89-13.94,98.54c-3.6-1.23-7.21-2.42-10.82-3.58
			c-0.14,0.85-0.28,1.7-0.43,2.55c4.34,1.39,8.67,2.84,12.98,4.33c5.8-33.47,10.72-67.16,14.75-101.05
			C618.23,101.28,617.39,101.01,616.54,100.75z"/>
		<path class="st0" d="M598.88,129.78c0.02-0.2,0.05-0.39,0.07-0.59c0.46-3.88,1.39-7.61,3.58-15.58c-0.44-0.13-0.87-0.26-1.31-0.39
			c-4.19,12.43-4.58,13.8-5.39,15.34c-4.85,10.6-9.61,21.24-14.3,31.9c1.03,0.29,2.05,0.59,3.07,0.88
			c4.39-9.85,8.84-19.68,13.37-29.48C598.27,131.33,598.51,130.79,598.88,129.78z"/>
		<path class="st0" d="M576.69,171.83c-2.47,5.72-4.92,11.44-7.35,17.17c-3.36-0.93-6.72-1.84-10.09-2.71
			c-0.34,0.79-0.67,1.59-1.01,2.39c4.35,1.12,8.68,2.3,13.01,3.52c2.45-5.72,4.92-11.44,7.42-17.14c4.48,1.29,8.95,2.62,13.41,4.01
			c0.13-0.85,0.26-1.71,0.39-2.56C587.22,174.88,581.96,173.32,576.69,171.83z"/>
		<path class="st0" d="M653.22,130.22c-2.07,6.84-4.77,15.26-7.28,21.77c-7.1,18.43-14.2,36.87-21.3,55.3
			c-3.21-1.24-6.42-2.44-9.64-3.62c-0.29,0.8-0.59,1.6-0.88,2.41c4.06,1.48,8.1,3.01,12.13,4.59c7.18-18.4,14.37-36.8,21.55-55.2
			c0.69-1.76,1.39-3.67,2.09-5.64c1.57-7.94,3.39-14.07,4.77-19.04C654.19,130.59,653.71,130.41,653.22,130.22z"/>
		<path class="st0" d="M670.15,227.02c-3.12-1.51-6.25-2.99-9.39-4.44c-0.36,0.78-0.72,1.55-1.07,2.33
			c3.95,1.83,7.89,3.7,11.81,5.62c14.72-30.12,29.43-60.24,44.15-90.36c-0.96-0.47-1.92-0.93-2.88-1.4
			C698.57,168.18,684.36,197.6,670.15,227.02z"/>
		<path class="st0" d="M651.86,188.31c0.39,0.16,0.78,0.33,1.17,0.49c1.53-3.38,3.31-7.24,5.5-11.37c0.5-1.91,1.01-4.04,1.57-6.67
			c3.66-16.85,7.08-33.78,10.26-50.78c-0.82-0.33-1.64-0.66-2.47-0.99c-2.96,16.15-6.14,32.24-9.53,48.26
			C656.37,176.76,655.18,179.97,651.86,188.31z"/>
		<path class="st0" d="M692.71,146.8c-0.42-0.19-0.84-0.38-1.26-0.57c-1.38,2.19-8.01,13.1-9.64,15.5
			c-11.95,18.05-23.6,36.27-34.96,54.64c-2.91-1.26-5.83-2.49-8.76-3.7c-0.21,0.84-0.41,1.68-0.62,2.52
			c3.63,1.5,7.26,3.05,10.87,4.62c11.43-18.33,23.15-36.49,35.17-54.5c0.28-0.41,0.71-1.08,1.24-1.89c0.54-1.18,1.08-2.36,1.61-3.54
			C688.31,155.6,690.54,151.13,692.71,146.8z"/>
		<path class="st0" d="M725.92,190.72c0.34,0.19,0.69,0.38,1.03,0.57c0.79-1.13,2.04-2.97,3.74-5.18c1.12-3.05,2.17-6.36,3.01-10.29
			c1.67-7.96,3.27-15.96,4.79-23.97c-0.71-0.38-1.42-0.76-2.13-1.13c-1.33,7.14-2.72,14.26-4.17,21.37
			C730.57,179.79,728.2,185.15,725.92,190.72z"/>
		<path class="st0" d="M770.71,170.19c-15.37,12.46-30.32,25.28-44.85,38.45c-6.93,12.23-13.85,24.46-20.78,36.69
			c-3.71-2.1-7.44-4.16-11.18-6.18c-0.41,0.75-0.81,1.5-1.22,2.26c4.54,2.44,9.05,4.95,13.54,7.52c6.98-12.2,13.96-24.4,20.94-36.59
			c15.23-13.71,30.94-27.04,47.1-39.97C773.08,171.63,771.89,170.91,770.71,170.19z"/>
	</g>
	<g>
		<path class="st0" d="M38.4,167.98c9.33-5.72,18.76-11.2,28.28-16.45c14.26-7.77,18.36-2.51,23.33,7.06
			c2.93,5.65,5.86,11.29,8.79,16.94c6.5,12.56,7.37,17.1-5.15,23.91c-4.51,2.48-9,5.02-13.47,7.62
			c7.64,13.14,15.27,26.27,22.9,39.41c-4.07,2.36-8.11,4.78-12.14,7.24C73.43,225.15,55.91,196.56,38.4,167.98z M58.86,170.04
			c5.15,8.87,10.3,17.74,15.45,26.61c2.89-1.68,5.78-3.33,8.69-4.96c3.25-1.82,4.54-3.33,2.69-6.71
			c-3.39-6.16-6.77-12.32-10.16-18.47c-1.71-3.12-3.09-4.16-7.89-1.48C64.7,166.67,61.77,168.34,58.86,170.04z"/>
		<path class="st0" d="M109.22,160.08c-4-8.19-6.45-14.31-3.61-21.52c2.61-6.46,8.64-11.79,15.83-14.97
			c6.36-2.82,13.13-4.28,19.54-2.15c8.59,2.8,11.13,9.33,15.73,20.83c5.9,14.77,11.8,29.54,17.7,44.32
			c2.78,6.98,8.31,21.86-12.85,31.09c-2.68,1.16-12.59,5.72-21.62-0.79c-4.37-2.95-6.52-7.28-8.64-11.64
			C123.95,190.2,116.59,175.14,109.22,160.08z M140.68,144.59c-3.4-7.98-6.03-14.19-14.72-10.37c-1.12,0.49-6.43,2.87-6.31,8.16
			c0.04,2.17,0.93,4.12,3.55,9.81c7.52,16.35,15.04,32.7,22.56,49.05c2.09,4.54,4.83,9.34,12.06,6.11
			c7.81-3.44,5.55-9.55,2.75-16.11C153.94,175.69,147.31,160.14,140.68,144.59z"/>
		<path class="st0" d="M196.22,96.18c5.28-1.65,10.57-3.25,15.88-4.77c-1.95,17.86-3.42,35.68-4.41,53.44
			c12.34,13.8,24.15,27.91,35.43,42.29c-4.61,1.3-9.2,2.65-13.78,4.06c-8.87-10.98-18.05-21.8-27.54-32.43
			c-0.82-0.93-4.36-5.29-5.24-6.35c5.06,14.83,10.13,29.66,15.19,44.49c-4.45,1.52-8.89,3.09-13.31,4.72
			c-11.57-31.46-23.14-62.93-34.71-94.39c5.21-1.92,10.44-3.77,15.69-5.56c4.29,12.58,8.59,25.17,12.88,37.75
			c1.06,3.1,1.45,4.77,2.28,7.2c-0.31-3.96-0.28-8.03-0.21-9.41C194.73,123.58,195.34,109.9,196.22,96.18z"/>
		<path class="st0" d="M227.38,87.2c13.22-3.49,26.52-6.58,39.87-9.29c0.84,4.14,1.68,8.28,2.52,12.43
			c-7.77,1.57-15.52,3.28-23.24,5.12c2.27,9.51,4.54,19.03,6.81,28.54c6.65-1.59,13.31-3.07,20-4.45c0.83,4.05,1.67,8.09,2.5,12.14
			c-6.56,1.35-13.1,2.81-19.62,4.36c2.59,10.85,5.18,21.71,7.77,32.56c6.94-1.65,13.9-3.19,20.87-4.6
			c0.84,4.14,1.68,8.28,2.52,12.43c-11.51,2.33-22.96,4.99-34.35,8C244.49,152.03,235.93,119.61,227.38,87.2z"/>
		<path class="st0" d="M275.69,76.26c4.59-0.87,9.2-1.7,13.8-2.48c0.85,5.01,1.7,10.02,2.55,15.03c2.25,13.22,0.34,17.38-8.68,24.28
			c-0.19-1.03-0.39-2.05-0.58-3.08c4.2-3.83,4.87-6.83,3.06-16.93c-2.24,0.4-4.48,0.82-6.72,1.24
			C277.98,88.29,276.83,82.27,275.69,76.26z"/>
		<path class="st0" d="M326.5,151.32c0.45,3.4,1.27,9.58,8.51,8.7c6.64-0.78,6.12-7.14,5.55-12.38
			c-1.04-9.32-3.21-13.46-15.11-25.48c-10.44-10.31-18.55-17.7-20.5-30.52c-0.81-5.35-0.14-10.06,2.05-14.27
			c3.89-7.04,11.16-9.91,19.52-10.87c15.39-1.73,21.38,4.76,22.23,15.09c0.51,5.96,1.02,11.92,1.53,17.88
			c-4.7,0.4-9.4,0.85-14.1,1.35c-0.63-5.9-1.26-11.8-1.89-17.71c-0.33-3.11-1.24-6.76-7.08-6.09c-7.39,0.87-7.42,6.08-6.78,11.01
			c1.26,10.2,5.71,14.29,18.44,27.25c8.31,8.72,15.13,16.32,16.2,29.23c0.56,6.67-0.75,13.21-3.53,17.61
			c-4.39,6.69-11.28,7.86-15.15,8.33c-19.95,2.5-22.53-13.68-23.31-18.83c-0.85-5.54-1.69-11.08-2.54-16.62
			c4.52-0.69,9.04-1.33,13.56-1.92C324.9,139.17,325.7,145.25,326.5,151.32z"/>
		<path class="st0" d="M396.31,63.93c9.96-0.16,19.92-0.11,29.87,0.15c17.51,0.54,18.43,8.9,18,16.96
			c-1.18,22.29-2.36,44.57-3.54,66.86c-0.73,13.25-4.53,17.09-15.89,16.75c-8.94-0.25-17.88-0.31-26.82-0.16
			C397.39,130.96,396.85,97.45,396.31,63.93z M412.48,76.1c-0.18,25.31-0.35,50.62-0.53,75.92c3.16,0.02,6.32,0.07,9.48,0.14
			c4.12,0.1,4.65-2.16,4.75-5.43c0.63-21.12,1.25-42.24,1.88-63.36c0.11-3.84,0.04-7-6.31-7.14
			C418.66,76.17,415.57,76.13,412.48,76.1z"/>
		<path class="st0" d="M463.87,66.07c8.83,0.7,17.65,1.57,26.45,2.61c19.83,2.44,21.4,7.38,18.43,27.03
			c-2.63,17.49-4.2,24.51-16.42,22.73c-0.02,0.19-0.05,0.38-0.07,0.57c10.68,2.57,11.29,8.21,9.31,21.43
			c-0.54,3.62-1.08,7.23-1.62,10.85c-1.79,11.98-1.74,13.85-0.26,20.13c-4.8-0.74-9.61-1.41-14.42-2.04
			c-0.44-5.95-0.88-11.02,0.39-21.2c0.3-2.36,0.59-4.71,0.89-7.07c0.48-3.81,1.32-11.75-0.04-15.22c-1.4-3.17-3.16-3.43-12-4.36
			c-1.58,15.35-3.16,30.7-4.74,46.05c-4.63-0.48-9.26-0.9-13.89-1.27C458.54,132.91,461.2,99.49,463.87,66.07z M478.99,79.61
			c-1.06,10.3-2.13,20.59-3.19,30.89c2.4,0.25,4.79,0.51,7.18,0.78c7.66,0.89,8.36-2,10.46-18.54c1.4-11.01,0.58-11.43-6.25-12.23
			C484.46,80.19,481.73,79.89,478.99,79.61z"/>
		<path class="st0" d="M530.85,74.64c13.41,2.37,26.76,5.13,40.04,8.28c-0.98,4.11-1.95,8.22-2.93,12.34
			c-7.73-1.83-15.48-3.53-23.25-5.1c-1.93,9.59-3.86,19.18-5.79,28.77c6.69,1.35,13.36,2.8,20.01,4.35
			c-0.94,4.02-1.88,8.05-2.82,12.07c-6.53-1.52-13.08-2.95-19.64-4.27c-2.2,10.94-4.41,21.88-6.61,32.82
			c6.98,1.4,13.94,2.93,20.88,4.58c-0.98,4.11-1.95,8.22-2.93,12.34c-11.44-2.72-22.94-5.1-34.49-7.14
			C519.17,140.66,525.01,107.65,530.85,74.64z"/>
		<path class="st0" d="M614.56,94.77c-3.68,33.93-8.26,67.68-13.72,101.21c-4.36-1.47-8.73-2.88-13.12-4.25
			c0.97-6.16,1.9-12.33,2.82-18.51c-5.27-1.61-10.56-3.15-15.86-4.63c-2.45,5.73-4.88,11.46-7.28,17.2
			c-4.37-1.19-8.75-2.34-13.15-3.43c12.94-31.33,26.66-62.39,41.17-93.17C601.83,90.98,608.2,92.83,614.56,94.77z M598.98,109.9
			c-4.14,12.45-4.52,13.82-5.32,15.37c-4.81,10.62-9.53,21.28-14.17,31.96c4.28,1.2,8.55,2.44,12.82,3.73
			c1.6-11.67,3.09-23.36,4.49-35.08c0.44-3.88,1.35-7.62,3.5-15.6C599.86,110.16,599.42,110.03,598.98,109.9z"/>
		<path class="st0" d="M666.35,112.86c-3.01,17.03-6.26,34-9.74,50.89c-1.95,9.52-3.13,12.73-6.41,21.09
			c0.39,0.16,0.79,0.33,1.18,0.49c2.45-5.46,5.38-12.11,10-19.29c9.29-14.59,18.78-29.07,28.47-43.44
			c7.46,3.25,14.88,6.64,22.25,10.16c-14.44,30.25-28.88,60.51-43.32,90.76c-3.97-1.9-7.95-3.75-11.95-5.55
			c9.27-20.56,18.54-41.12,27.81-61.68c1.93-4.29,4.14-8.76,6.29-13.1c-0.42-0.19-0.84-0.38-1.27-0.57
			c-1.38,2.19-7.96,13.14-9.57,15.54c-11.88,18.1-23.46,36.37-34.74,54.78c-3.65-1.56-7.32-3.08-10.99-4.56
			c4.82-20.38,9.33-40.86,13.54-61.42c1.56-8.25,3.4-14.56,4.8-19.67c-0.48-0.18-0.97-0.37-1.46-0.55
			c-2.03,6.85-4.7,15.28-7.18,21.81c-7.02,18.46-14.03,36.93-21.05,55.39c-4.08-1.55-8.17-3.05-12.27-4.51
			c11.23-31.59,22.46-63.17,33.69-94.76C651.77,107.26,659.08,110,666.35,112.86z"/>
		<path class="st0" d="M735.19,144.3c-1.43,8.04-2.94,16.05-4.53,24.04c-1.58,7.72-3.93,13.1-6.18,18.68
			c0.35,0.19,0.69,0.38,1.04,0.57c1.87-2.71,6.2-9.28,13.49-15.99c5.83-5.24,11.72-10.43,17.68-15.56
			c4.92,2.79,9.81,5.65,14.68,8.57c-16.07,13.06-31.69,26.51-46.83,40.34c-6.87,12.26-13.74,24.52-20.61,36.79
			c-4.54-2.55-9.11-5.03-13.7-7.45c6.53-12.39,13.06-24.78,19.59-37.18c3.85-20.03,7.19-40.24,10.02-60.6
			C724.97,139.04,730.09,141.63,735.19,144.3z"/>
	</g>
</g>
<g>
	<g>
		<path class="st0" d="M85.42,563.94c0.98,0.54,1.66,1.09,2.21,1.64c0.33-1.84-0.36-3.53-3.43-5.25c-2.46-1.38-4.92-2.78-7.37-4.19
			c-12.65,21.92-25.3,43.84-37.95,65.76c0.91,0.53,1.82,1.05,2.73,1.57c12.13-21.23,24.26-42.46,36.39-63.7
			C80.47,561.17,82.94,562.57,85.42,563.94z"/>
		<path class="st0" d="M103.44,562.65c0.55,3.72-1.03,7.45-2.89,11.03c-10.29,19.8-20.58,39.6-30.88,59.41
			c-6.08,11.74-11.79,13.54-23.65,7.05c-8.35-4.6-16.64-9.37-24.86-14.3c-0.44,0.73-0.88,1.46-1.32,2.2
			c9.16,5.51,18.42,10.81,27.75,15.89c11.92,6.46,17.64,4.64,23.67-7.13c10.21-19.85,20.42-39.69,30.62-59.54
			C104.33,572.52,106.23,567.54,103.44,562.65z"/>
		<path class="st0" d="M92.72,663.76c-3.94-1.82-7.87-3.69-11.79-5.58c-0.37,0.77-0.74,1.54-1.12,2.31
			c4.89,2.37,9.8,4.68,14.72,6.93c13.94-30.49,27.89-60.97,41.83-91.46c-0.83-0.38-1.67-0.77-2.5-1.15
			C120.15,604.46,106.43,634.11,92.72,663.76z"/>
		<path class="st0" d="M157.46,605.33c1.86-4.63,4.35-9.13,10.51-6.72c0.88,0.34,1.52,0.75,2.06,1.19c-0.02-1.79-0.87-3.48-3.7-4.59
			c-6.13-2.43-8.63,2.06-10.52,6.68c-3.83,9.5-2.56,15.17,2.78,32.49c3.42,11.53,6.8,21.37,2.42,33.57
			c-2.26,6.3-6.37,11.64-11.22,14.26c-7.55,3.91-15.45,1.33-19.68-0.37c-6.54-2.6-10.51-5.87-12.86-9.24
			c1.75,4.58,5.97,9.29,14.86,12.79c4.25,1.68,12.18,4.24,19.73,0.31c4.86-2.63,8.94-7.99,11.18-14.3
			c4.32-12.22,0.88-22.05-2.61-33.57C154.97,620.51,153.67,614.84,157.46,605.33z"/>
		<path class="st0" d="M130.42,669.92c-0.38-2.37,0.59-4.8,1.27-6.48c2.3-5.68,4.6-11.35,6.91-17.03c-0.93-0.38-1.86-0.76-2.79-1.14
			c-2,4.88-4,9.75-6,14.63C128.76,662.46,127,666.73,130.42,669.92z"/>
		<path class="st0" d="M175.46,625.01c-3.34-1.21-6.67-2.44-10-3.7c-0.3,0.8-0.61,1.6-0.91,2.4c4.23,1.61,8.48,3.17,12.74,4.69
			c2.01-5.63,4.02-11.27,6.03-16.9c2.11-5.91,2.11-11.16-0.89-15.41c1.15,3.56,0.74,7.63-0.86,12.06
			C179.52,613.75,177.49,619.38,175.46,625.01z"/>
		<path class="st0" d="M219.01,708.97c-4.98-1.29-9.95-2.64-14.91-4.04c-0.01,0.88-0.02,1.77-0.03,2.65
			c5.76,1.62,11.54,3.17,17.33,4.64c8.29-32.48,16.59-64.96,24.88-97.44c-0.88-0.22-1.75-0.45-2.63-0.68
			C235.44,645.73,227.23,677.35,219.01,708.97z"/>
		<path class="st0" d="M213.47,680.34c0.32,0.09,0.65,0.18,0.97,0.27c0.44-3.4,0.93-6.8,1.52-10.21
			c0.18-21.25,0.84-42.43,1.97-63.54c-0.67-0.2-1.33-0.41-2-0.61c-1.2,21.19-1.92,42.47-2.17,63.81
			C213.67,674.04,213.54,676.96,213.47,680.34z"/>
		<path class="st0" d="M204.16,626.31c-0.62,2.84-1.25,5.68-1.86,8.52c-0.67,2.83-1.33,5.65-2,8.48
			c-5.38,18.57-10.73,37.14-16.04,55.73c-3.82-1.19-7.64-2.42-11.45-3.67c-0.27,0.81-0.53,1.62-0.8,2.43
			c4.82,1.59,9.64,3.12,14.49,4.61c5.23-18.61,10.5-37.21,15.8-55.8c0.65-2.83,1.3-5.66,1.96-8.49c0.02-0.11,0.05-0.22,0.07-0.34
			c0.23-3.74,0.47-7.47,0.72-11.2C204.76,626.5,204.46,626.41,204.16,626.31z"/>
		<path class="st0" d="M265.14,672.34c-2.26,10.93-4.52,21.86-6.78,32.78c1,0.21,2,0.41,3,0.61c2.04-10.1,4.09-20.2,6.13-30.3
			c6.6,1.34,13.22,2.58,19.85,3.72c0.7-4.07,1.41-8.14,2.11-12.21c-0.94-0.16-1.89-0.33-2.83-0.5c-0.57,3.23-1.14,6.45-1.71,9.68
			C278.3,674.96,271.71,673.7,265.14,672.34z"/>
		<path class="st0" d="M279.41,722.03c-12.26-2.13-24.48-4.56-36.65-7.3c-0.19,0.83-0.38,1.67-0.56,2.5
			c13.22,2.98,26.51,5.59,39.85,7.85c0.71-4.17,1.41-8.33,2.12-12.5c-1.01-0.17-2.02-0.34-3.02-0.52
			C280.56,715.38,279.99,718.7,279.41,722.03z"/>
		<path class="st0" d="M273.59,631.47c-1.98,9.58-3.96,19.16-5.94,28.74c0.94,0.19,1.87,0.38,2.81,0.57
			c1.77-8.75,3.54-17.5,5.31-26.25c6.91,1.4,13.84,2.69,20.79,3.86c0.71-4.17,1.41-8.33,2.12-12.5c-0.89-0.15-1.78-0.3-2.66-0.46
			c-0.58,3.32-1.15,6.64-1.73,9.97C287.37,634.2,280.47,632.89,273.59,631.47z"/>
		<path class="st0" d="M320.34,669.7c0.37,0.05,0.74,0.09,1.11,0.14c0.3-1.35,0.78-3.51,1.5-6.2c-0.06-3.24-0.26-6.7-0.79-10.65
			c-1.12-7.99-2.17-15.99-3.14-23.98c-0.67-0.09-1.34-0.18-2.01-0.28c0.84,7.12,1.75,14.24,2.71,21.36
			C320.73,657.84,320.47,663.69,320.34,669.7z"/>
		<path class="st0" d="M326.77,686.26c-1.61,13.96-3.21,27.93-4.82,41.89c-4.74-0.54-9.48-1.13-14.21-1.77
			c-0.11,0.85-0.23,1.69-0.34,2.54c5.78,0.78,11.56,1.48,17.35,2.12c1.55-13.97,3.1-27.94,4.64-41.91
			c8.48-18.65,16.44-37.44,23.89-56.35c-1.15-0.1-2.3-0.2-3.45-0.3C342.62,650.53,334.93,668.46,326.77,686.26z"/>
		<path class="st0" d="M410.35,691.74c0,0.85,0.01,1.71,0.01,2.56c2.12-0.01,4.25-0.03,6.37-0.05c-0.01-0.85-0.02-1.71-0.03-2.56
			C414.58,691.72,412.47,691.74,410.35,691.74z"/>
		<path class="st0" d="M409.1,642.46c-7.11,0-7.17,6.09-7.21,11.09c-0.17,19.28-0.33,38.55-0.5,57.83
			c-0.04,5.36-0.09,10.07,4.2,11.61c-1.23-2.24-1.22-5.49-1.2-9.03c0.09-19.28,0.17-38.56,0.26-57.83
			c0.02-4.99,0.06-11.09,7.19-11.12c1.19-0.01,2.11,0.2,2.91,0.49C413.89,643.61,412.25,642.45,409.1,642.46z"/>
		<path class="st0" d="M407.41,734.62c-6.06,0-10.4-1.44-13.53-3.58c3.15,3.57,8.33,6.16,16.65,6.14c6.92-0.03,10.52-2.46,12.8-4.63
			c-0.46-1.44-0.91-2.89-1.36-4.33C419.78,730.53,416.39,734.61,407.41,734.62z"/>
		<path class="st0" d="M429.32,663.63c-3.54,0.11-7.09,0.2-10.63,0.25c0.01,0.85,0.03,1.71,0.04,2.56c4.5-0.07,9-0.19,13.5-0.35
			c-0.13-3.51-0.25-7.02-0.38-10.54c-0.18-5.23-0.58-14.01-7.34-18.58c4.06,4.82,4.35,11.72,4.48,16.11
			C429.1,656.6,429.21,660.11,429.32,663.63z"/>
		<path class="st0" d="M433.07,732.63c-2.43,0.08-4.86,0.15-7.3,0.21c0.27,0.85,0.54,1.7,0.82,2.54c3.23-0.08,6.45-0.18,9.67-0.3
			c-0.68-17.84-1.36-35.68-2.03-53.52c-0.96,0.04-1.92,0.07-2.89,0.1C431.92,698.65,432.49,715.64,433.07,732.63z"/>
		<path class="st0" d="M494.06,728.07c-12.34,1.43-24.7,2.55-37.09,3.36c0.06,0.85,0.11,1.71,0.17,2.56
			c13.46-0.89,26.9-2.13,40.3-3.74c-0.5-4.2-1.01-8.39-1.51-12.59c-1.01,0.12-2.03,0.24-3.04,0.36
			C493.29,721.37,493.68,724.72,494.06,728.07z"/>
		<path class="st0" d="M466.37,684.46c0.93,11.12,1.86,22.24,2.79,33.36c1.01-0.08,2.03-0.17,3.04-0.26
			c-0.9-10.26-1.8-20.53-2.7-30.79c6.69-0.59,13.37-1.27,20.04-2.05c-0.48-4.1-0.96-8.21-1.44-12.31c-0.95,0.11-1.9,0.22-2.85,0.33
			c0.37,3.26,0.73,6.51,1.1,9.77C479.69,683.25,473.03,683.9,466.37,684.46z"/>
		<path class="st0" d="M462.89,642.86c0.82,9.75,1.63,19.49,2.45,29.24c0.95-0.08,1.9-0.16,2.85-0.24
			c-0.78-8.89-1.56-17.79-2.34-26.68c7-0.61,14-1.34,20.98-2.18c-0.5-4.2-1.01-8.39-1.51-12.59c-0.89,0.11-1.79,0.21-2.68,0.32
			c0.39,3.35,0.78,6.7,1.16,10.05C476.83,641.59,469.86,642.28,462.89,642.86z"/>
		<path class="st0" d="M538.81,621.75c-0.88,0.18-1.77,0.36-2.65,0.54c0.61,3.03,1.22,6.05,1.82,9.08
			c-5.48,1.1-10.98,2.13-16.48,3.09c5.09,29.14,10.18,58.28,15.27,87.42c-4.37,0.76-8.75,1.49-13.13,2.17
			c0.13,0.84,0.26,1.69,0.4,2.53c5.42-0.85,10.84-1.75,16.24-2.72c-5.21-29.12-10.42-58.24-15.63-87.36
			c5.52-0.99,11.04-2.05,16.54-3.17C540.39,629.47,539.6,625.61,538.81,621.75z"/>
		<path class="st0" d="M493.8,638.69c0.11,0.85,0.22,1.69,0.33,2.54c4.49-0.59,8.98-1.23,13.47-1.91c-0.13-0.84-0.26-1.69-0.39-2.53
			C502.75,637.47,498.28,638.1,493.8,638.69z"/>
		<path class="st0" d="M568.82,696.59c0.48,6.22,0.94,12.44,1.37,18.67c-3.92,0.87-7.84,1.71-11.76,2.51
			c0.03,0.87,0.06,1.73,0.09,2.6c5.1-1.04,10.2-2.14,15.28-3.29c-0.46-6.23-0.94-12.45-1.44-18.67c4.98-1.15,9.96-2.35,14.93-3.6
			c-0.35-0.79-0.69-1.59-1.04-2.38C580.45,693.89,574.64,695.28,568.82,696.59z"/>
		<path class="st0" d="M567.26,615.25c13.17,30.37,27.11,60.48,41.8,90.3c-4.21,1.17-8.43,2.31-12.66,3.41
			c0.35,0.79,0.71,1.58,1.06,2.37c5.11-1.33,10.21-2.72,15.3-4.16c-15.23-30.53-29.66-61.37-43.28-92.49
			C568.74,614.87,568,615.06,567.26,615.25z"/>
		<path class="st0" d="M567.75,649.03c-0.08-0.18-0.15-0.36-0.23-0.55c-1.51-3.59-2.56-7.3-4.63-15.3c-0.4,0.1-0.8,0.19-1.2,0.29
			c2.56,12.86,2.88,14.25,2.97,15.98c1.1,11.59,2.13,23.2,3.08,34.82c1.09-0.25,2.18-0.5,3.27-0.75
			c-0.93-10.75-1.92-21.5-2.98-32.23C568,650.67,567.93,650.09,567.75,649.03z"/>
		<path class="st0" d="M629.6,623.51c-0.45,0.15-0.89,0.31-1.34,0.46c1.76,5.12,4.17,12.12,4.89,15.19
			c4.16,18.4,8.16,36.85,12,55.34c-4.96,1.66-9.94,3.26-14.92,4.81c0.36,0.78,0.73,1.56,1.1,2.34c5.89-1.83,11.77-3.74,17.62-5.72
			c-3.8-17.94-7.74-35.83-11.84-53.68c-0.39-0.8-0.77-1.6-1.16-2.4C633.47,634.68,631.66,629.43,629.6,623.51z"/>
		<path class="st0" d="M678.02,682.68c-5,1.93-10.01,3.81-15.04,5.63c0.39,0.77,0.78,1.53,1.17,2.3c5.93-2.15,11.84-4.38,17.73-6.68
			c-7.74-32.97-16.09-65.75-25.04-98.33c-0.94,0.39-1.89,0.78-2.83,1.16C662.59,618.54,670.6,650.52,678.02,682.68z"/>
		<path class="st0" d="M630.46,678.33c0.32-0.1,0.65-0.21,0.97-0.31c-2.61-8.12-3.82-12.38-4.81-17.28
			c-7.96-18.49-15.77-37.05-23.43-55.65c-0.8,0.25-1.59,0.5-2.39,0.74c7.64,18.76,15.43,37.47,23.38,56.11
			C627.25,668.88,628.39,672.41,630.46,678.33z"/>
		<path class="st0" d="M661.39,667.5c0.37-0.14,0.74-0.28,1.12-0.41c-2.59-6.94-3.82-10.73-5.06-15.12
			c-0.05-0.09-0.09-0.17-0.14-0.27c-9.63-18.35-19.06-36.8-28.27-55.33c-0.76,0.28-1.53,0.55-2.29,0.82
			c8.77,17.8,17.72,35.51,26.87,53.14C657.76,658.21,659.01,661.54,661.39,667.5z"/>
		<path class="st0" d="M696.11,604.32c-0.11-0.16-0.22-0.33-0.33-0.49c-2.2-3.22-3.96-6.65-7.57-14.08
			c-0.38,0.18-0.76,0.35-1.14,0.53c5.05,12.11,5.63,13.4,6.06,15.09c3.35,11.16,6.62,22.35,9.82,33.56
			c1.04-0.47,2.07-0.94,3.11-1.41c-3.01-10.37-6.08-20.72-9.22-31.04C696.68,605.88,696.5,605.32,696.11,604.32z"/>
		<path class="st0" d="M689.07,571.24c18.99,27.13,38.7,53.84,59.11,80.11c-3.97,2.02-7.95,4.01-11.94,5.95
			c0.51,0.7,1.01,1.41,1.52,2.11c4.83-2.36,9.64-4.77,14.43-7.24c-21.08-26.85-41.42-54.18-61.01-81.94
			C690.47,570.57,689.77,570.9,689.07,571.24z"/>
		<path class="st0" d="M706.4,650.8c1.69,6.01,3.35,12.03,4.99,18.05c-3.72,1.65-7.46,3.27-11.2,4.85c0.2,0.84,0.39,1.69,0.59,2.53
			c4.87-2.06,9.72-4.17,14.55-6.33c-1.66-6.02-3.35-12.03-5.06-18.03c4.73-2.14,9.45-4.34,14.15-6.58c-0.5-0.71-1-1.42-1.49-2.13
			C717.45,645.77,711.94,648.32,706.4,650.8z"/>
		<path class="st0" d="M742.88,588.68c0.33-0.19,0.67-0.37,1-0.56c-0.55-1.27-1.44-3.3-2.43-5.9c-1.97-2.58-4.19-5.24-6.99-8.1
			c-5.68-5.76-11.3-11.56-16.85-17.41c-0.61,0.33-1.22,0.66-1.83,0.99c4.93,5.22,9.91,10.41,14.93,15.56
			C736.15,578.89,739.41,583.76,742.88,588.68z"/>
		<path class="st0" d="M745.4,540.81c4.68,18.92,8.91,38.03,12.68,57.31c6.96,12.21,13.91,24.43,20.87,36.64
			c-4.28,2.44-8.58,4.83-12.89,7.18c0.41,0.75,0.82,1.5,1.22,2.25c5.27-2.87,10.51-5.8,15.73-8.8
			c-7.01-12.18-14.01-24.37-21.02-36.55c-4-20.16-8.51-40.13-13.51-59.9C747.45,539.56,746.42,540.19,745.4,540.81z"/>
	</g>
	<g>
		<path class="st0" d="M69.55,534.57c7.5,4.59,15.06,9.02,22.7,13.28c13.38,7.39,10.77,15.02,6.99,22.25
			c-10.38,19.76-20.75,39.52-31.13,59.27c-6.13,11.71-11.84,13.5-23.64,6.97c-9.24-5.14-18.39-10.48-27.46-16.04
			C34.52,591.73,52.03,563.15,69.55,534.57z M75.67,552.5c-12.74,21.87-25.49,43.73-38.23,65.6c3.12,1.82,6.25,3.61,9.39,5.38
			c4.1,2.31,5.67,0.56,7.26-2.31c10.24-18.48,20.48-36.97,30.71-55.45c1.86-3.37,3.24-6.17-1.8-9.01
			C80.55,555.32,78.11,553.92,75.67,552.5z"/>
		<path class="st0" d="M133.53,569.01c-14.2,30.37-28.4,60.73-42.6,91.1c-4.88-2.28-9.74-4.62-14.58-7.01
			c14.85-30.05,29.71-60.1,44.56-90.16C125.1,565.01,129.31,567.03,133.53,569.01z"/>
		<path class="st0" d="M127.95,656.36c-1.31,3.15-3.73,8.97,3.96,12.08c7.06,2.82,9.55-3.12,11.46-8.02
			c3.46-8.76,2.96-13.47-1.7-29.84c-4.09-14.16-6.59-24.62-1.39-36.49c2.17-4.96,5.14-8.63,8.91-11.2
			c6.47-4.19,13.13-3.39,19.85-0.71c12.29,4.86,14.35,12.77,10.79,22.58c-2.06,5.62-4.12,11.24-6.17,16.85
			c-4.22-1.54-8.42-3.13-12.61-4.76c2.15-5.53,4.3-11.06,6.45-16.59c1.14-2.93,2.04-6.53-2.79-8.45c-6.1-2.45-8.62,2.03-10.52,6.65
			c-3.87,9.48-2.63,15.16,2.6,32.48c3.35,11.54,6.66,21.38,2.24,33.56c-2.29,6.29-6.41,11.62-11.26,14.22
			c-7.55,3.88-15.41,1.28-19.62-0.43c-21.97-9-15.09-24.52-13.06-29.13c2.25-5.13,4.51-10.26,6.76-15.39
			c4.37,1.92,8.76,3.79,13.16,5.62C132.64,645.05,130.3,650.71,127.95,656.36z"/>
		<path class="st0" d="M214.26,600.37c-1.4,22.05-2.29,44.2-2.65,66.42c-0.11,3.97-0.25,6.89-0.34,10.27
			c0.32,0.09,0.64,0.18,0.96,0.27c0.63-4.71,1.27-9.41,2.28-14.16c0.65-3.07,1.29-6.15,1.95-9.22c4.42-16.32,8.86-32.63,13.32-48.94
			c4.18,1.19,8.37,2.35,12.56,3.45c-8.56,32.41-17.13,64.82-25.69,97.23c-5.74-1.52-11.47-3.1-17.18-4.76
			c0.56-25.99,1.79-51.88,3.68-77.64c-0.3-0.09-0.59-0.19-0.89-0.29c-0.64,2.84-1.27,5.68-1.9,8.51c-0.68,2.82-1.36,5.65-2.03,8.47
			c-5.46,18.54-10.88,37.1-16.27,55.66c-4.8-1.52-9.58-3.09-14.36-4.7c10.76-31.75,21.52-63.5,32.28-95.25
			C204.72,597.32,209.48,598.87,214.26,600.37z"/>
		<path class="st0" d="M260.19,612.92c11.3,2.64,22.66,4.98,34.06,7.01c-0.74,4.16-1.48,8.32-2.22,12.48
			c-6.88-1.22-13.75-2.56-20.6-4c-2.02,9.57-4.04,19.14-6.06,28.71c6.43,1.36,12.88,2.62,19.33,3.79
			c-0.74,4.06-1.47,8.13-2.21,12.19c-6.57-1.19-13.14-2.48-19.68-3.86c-2.3,10.92-4.61,21.84-6.91,32.75
			c7.69,1.62,15.4,3.12,23.12,4.49c-0.74,4.16-1.48,8.32-2.22,12.48c-13.23-2.35-26.41-5.06-39.52-8.13
			C244.91,678.2,252.55,645.56,260.19,612.92z"/>
		<path class="st0" d="M314.4,623.18c0.89,8,1.86,16,2.9,24c0.97,7.75,0.69,13.6,0.53,19.62c0.37,0.05,0.73,0.1,1.1,0.14
			c0.73-3.21,2.39-10.89,6.3-19.88c3.15-7.07,6.23-14.17,9.24-21.28c4.63,0.53,9.27,1,13.91,1.43
			c-7.56,18.86-15.63,37.59-24.22,56.17c-1.66,13.96-3.33,27.91-4.99,41.87c-5.75-0.68-11.49-1.44-17.22-2.25
			c1.98-13.87,3.96-27.73,5.94-41.6c-3.03-20.15-5.57-40.29-7.62-60.43C304.98,621.75,309.68,622.49,314.4,623.18z"/>
		<path class="st0" d="M384.83,656.89c0.29-8.69,0.52-14.51,4.59-20.09c5.16-7.4,12.97-8,17.43-8.01
			c18.61-0.09,19.09,14.36,19.3,21.83c0.1,3.51,0.19,7.03,0.29,10.54c-4.46,0.12-8.93,0.2-13.4,0.24c-0.03-3.75-0.06-7.5-0.09-11.25
			c-0.05-5.7-0.39-10.24-6.57-10.23c-7.08-0.03-7.17,6.06-7.23,11.06c-0.25,19.28-0.49,38.55-0.74,57.83
			c-0.08,6.54-0.17,12.13,7.64,12.16c7.98,0,7.91-6.02,7.89-9c-0.07-7.6-0.13-15.19-0.2-22.79c-3.08,0.03-6.16,0.03-9.24,0.02
			c0.02-4.08,0.04-8.17,0.05-12.25c7.91,0.04,15.83-0.06,23.74-0.3c0.53,17.85,1.06,35.69,1.59,53.54c-3.2,0.1-6.41,0.17-9.61,0.22
			c-0.48-1.56-0.97-3.12-1.44-4.68c-2.18,2.3-5.57,6.37-14.53,6.34c-22.11-0.23-21.41-18.29-21.17-25.48
			C383.71,690.01,384.27,673.45,384.83,656.89z"/>
		<path class="st0" d="M444.86,628.86c11.52-0.66,23.03-1.63,34.52-2.91c0.47,4.2,0.94,8.4,1.41,12.6
			c-6.93,0.77-13.88,1.43-20.83,1.99c0.78,9.75,1.55,19.5,2.33,29.25c6.52-0.52,13.04-1.13,19.55-1.83
			c0.44,4.11,0.89,8.21,1.33,12.32c-6.63,0.72-13.26,1.34-19.9,1.87c0.88,11.12,1.77,22.25,2.65,33.37
			c7.8-0.62,15.59-1.36,23.37-2.23c0.47,4.2,0.94,8.4,1.41,12.6c-13.33,1.49-26.68,2.62-40.05,3.38
			C448.72,695.79,446.79,662.33,444.86,628.86z"/>
		<path class="st0" d="M486.62,625.1c15.36-1.89,30.67-4.32,45.9-7.32c0.76,3.87,1.52,7.73,2.28,11.6
			c-5.47,1.07-10.94,2.08-16.43,3.01c4.97,29.16,9.94,58.32,14.91,87.49c-5.38,0.92-10.76,1.77-16.15,2.57
			c-4.33-29.26-8.66-58.53-12.99-87.79c-5.35,0.79-10.71,1.52-16.07,2.17C487.58,632.92,487.1,629.01,486.62,625.1z"/>
		<path class="st0" d="M562.99,611.03c13.32,31.24,27.45,62.21,42.38,92.88c-5.06,1.39-10.14,2.72-15.22,4
			c-2.51-5.73-5-11.47-7.46-17.22c-5.78,1.43-11.57,2.79-17.38,4.07c0.46,6.22,0.89,12.44,1.31,18.67
			c-5.06,1.1-10.13,2.15-15.2,3.14c-0.86-33.99-2.48-67.9-4.86-101.7C552.04,613.66,557.52,612.38,562.99,611.03z M558.41,631.61
			c2.51,12.87,2.83,14.26,2.91,16c1.06,11.6,2.05,23.21,2.95,34.83c4.52-1.01,9.04-2.07,13.54-3.17
			c-4.64-10.84-9.19-21.71-13.65-32.62c-1.5-3.6-2.53-7.31-4.56-15.32C559.21,631.42,558.81,631.52,558.41,631.61z"/>
		<path class="st0" d="M622.19,593.36c9.04,18.62,18.29,37.15,27.75,55.58c4.11,7.9,5.34,11.24,7.7,17.21
			c0.37-0.14,0.74-0.27,1.11-0.41c-3.69-10.03-4.6-13.49-6.74-21.66c-4.94-18.73-10.02-37.41-15.24-56.05
			c4.37-1.66,8.73-3.36,13.08-5.12c8.71,32.63,16.82,65.47,24.32,98.49c-5.86,2.24-11.75,4.4-17.66,6.48
			c-8.2-16.44-16.25-32.95-24.14-49.52c-2.46-5.18-4.25-10.44-6.28-16.37c-0.45,0.15-0.89,0.3-1.34,0.46
			c1.74,5.13,4.12,12.14,4.82,15.21c4.09,18.42,8.02,36.88,11.8,55.38c-5.83,1.92-11.68,3.76-17.54,5.53
			c-14.06-30.77-27.55-61.76-40.45-92.96c4.38-1.23,8.74-2.52,13.09-3.84c7.86,19.59,15.89,39.13,24.08,58.61
			c3.05,6.96,4.17,10.49,6.22,16.41c0.32-0.1,0.64-0.2,0.97-0.31c-2.76-8.69-3.93-12.95-4.94-18.31
			c-3.99-20.31-8.19-40.56-12.57-60.76C614.23,596.11,618.21,594.75,622.19,593.36z"/>
		<path class="st0" d="M684,567.97c19.31,27.95,39.37,55.47,60.18,82.52c-4.77,2.41-9.57,4.76-14.38,7.06
			c-3.61-5.12-7.2-10.24-10.77-15.39c-5.47,2.59-10.97,5.1-16.49,7.54c1.66,6.01,3.3,12.04,4.92,18.07
			c-4.81,2.11-9.64,4.16-14.49,6.16c-7.46-33.19-15.66-66.15-24.58-98.84C673.62,572.79,678.83,570.42,684,567.97z M683.44,589.12
			c5,12.12,5.58,13.43,6,15.11c3.31,11.17,6.54,22.37,9.69,33.59c4.3-1.91,8.58-3.87,12.85-5.88c-6.72-9.7-13.35-19.45-19.9-29.24
			c-2.19-3.23-3.93-6.66-7.51-14.11C684.2,588.77,683.82,588.94,683.44,589.12z"/>
		<path class="st0" d="M710.32,554.8c5.49,5.9,11.04,11.77,16.65,17.58c5.41,5.65,8.65,10.54,12.09,15.47
			c0.33-0.18,0.67-0.37,1-0.55c-1.3-3.03-4.48-10.21-6.55-19.82c-1.57-7.6-3.22-15.18-4.94-22.73c4.18-2.39,8.34-4.82,12.47-7.31
			c4.88,19.78,9.26,39.76,13.14,59.93c6.9,12.24,13.81,24.49,20.71,36.73c-5.2,2.93-10.42,5.8-15.67,8.6
			c-6.59-12.36-13.17-24.72-19.76-37.09c-14.47-14.4-28.54-29.11-42.18-44.1C701.65,559.32,705.99,557.09,710.32,554.8z"/>
	</g>
</g>
</svg>
